<?xml version="1.0" encoding="UTF-8"?>
<!DOCTYPE svg PUBLIC "-//W3C//DTD SVG 1.1//EN" "http://www.w3.org/Graphics/SVG/1.1/DTD/svg11.dtd">
<svg version="1.1" xmlns="http://www.w3.org/2000/svg" xmlns:xlink="http://www.w3.org/1999/xlink" x="0px" y="0px" width="128" height="128" viewBox="0, 0, 128, 128">
  <g id="Background">
    <rect x="0" y="0" width="128" height="128" fill="#000000" fill-opacity="0"/>
  </g>
  <g id="Background">
    <path d="M18.093,6 L109.907,6 C116.561,6 122,11.439 122,18.093 L122,109.907 C122,116.561 116.561,122 109.907,122 L18.093,122 C11.439,122 6,116.561 6,109.907 L6,18.093 C6,11.439 11.439,6 18.093,6" fill="#727272"/>
    <path d="M95.549,42.02 C90.11,43.03 85.589,45.902 83.264,49.39 L76.359,34.89 C65.339,34.89 62.663,34.89 51.643,34.89 L44.738,49.39 C42.413,45.902 37.892,43.03 32.453,42.02 C25.971,40.815 20.08,42.6 17.363,46.157 C18.03,51.359 23.783,56.278 31.269,57.67 C36.658,58.675 41.641,57.612 44.728,55.173 L44.728,73.175 L54.752,85.323 L54.752,101.18 L64,107.651 L64,107.651 L73.248,101.18 L73.248,85.323 L83.272,73.175 L83.272,55.173 C86.361,57.612 91.342,58.675 96.731,57.67 C104.217,56.278 109.971,51.359 110.638,46.157 C107.921,42.6 102.029,40.815 95.549,42.02" fill="#EBEDED"/>
    <path d="M53.433,38.338 L47.678,50.209 L58.981,57.812 L57.214,98.454 L63.968,103.385 L64.032,103.385 L70.788,98.454 L69.02,57.812 L80.322,50.209 L74.569,38.338 C67.522,38.338 60.48,38.338 53.433,38.338" fill="#727272"/>
    <path d="M34.995,38.475 C31.433,34.146 29.583,23.405 34.773,20.35 C36.078,27.122 36.429,30.064 42.572,32.603 C45.29,33.73 46.677,36.21 45.97,39.485 C45.034,43.792 37.056,40.979 34.995,38.475" fill="#FEFEFE"/>
    <path d="M93.005,38.475 C96.567,34.146 98.417,23.405 93.229,20.35 C91.922,27.122 91.571,30.064 85.428,32.603 C82.711,33.73 81.323,36.21 82.03,39.485 C82.968,43.792 90.946,40.979 93.005,38.475" fill="#FEFEFE"/>
  </g>
  <defs/>
</svg>
